<?xml version="1.0" standalone="no"?>
<!DOCTYPE svg PUBLIC "-//W3C//DTD SVG 20010904//EN"
 "http://www.w3.org/TR/2001/REC-SVG-20010904/DTD/svg10.dtd">
<svg version="1.0" xmlns="http://www.w3.org/2000/svg"
 width="5726.000000pt" height="2048.000000pt" viewBox="0 0 5726.000000 2048.000000"
 preserveAspectRatio="xMidYMid meet">

<g transform="translate(0.000000,2048.000000) scale(0.100000,-0.100000)"
fill="#000000" stroke="none">
<path d="M4318 18889 c-120 -28 -252 -136 -306 -249 -76 -161 -194 -626 -247
-975 -40 -265 -50 -411 -49 -740 1 -315 14 -491 59 -760 119 -710 435 -1466
883 -2115 918 -1329 2410 -2502 4552 -3579 1520 -765 3159 -1392 5355 -2050
1014 -303 2602 -707 3815 -970 1498 -325 2638 -538 4415 -826 810 -131 2160
-321 3270 -459 1281 -160 2982 -337 4395 -456 335 -28 443 -37 738 -60 67 -6
177 -14 245 -20 67 -5 214 -17 327 -25 113 -8 266 -19 340 -25 1203 -90 3065
-196 4505 -255 1911 -79 3490 -117 5681 -136 2565 -23 5557 20 8318 121 302
11 551 19 552 17 2 -2 -785 -664 -1748 -1473 -964 -808 -1774 -1491 -1801
-1519 -174 -180 -166 -477 17 -654 105 -100 204 -137 350 -128 109 6 179 30
256 89 52 39 601 499 3355 2811 622 522 1137 951 1145 954 8 3 43 18 77 34
116 55 206 159 244 280 24 76 26 239 4 322 -28 108 -93 209 -174 270 -25 19
-674 407 -1441 862 -767 455 -1548 919 -1735 1030 -865 514 -1864 1107 -1935
1148 -55 32 -156 57 -230 57 -225 0 -421 -169 -461 -398 -30 -168 55 -359 206
-461 22 -16 211 -129 420 -253 209 -124 466 -276 570 -338 191 -114 329 -196
615 -365 141 -84 1289 -765 1540 -914 466 -277 679 -406 677 -408 -5 -5 -632
-28 -1432 -53 -176 -5 -396 -12 -490 -15 -624 -20 -1623 -42 -2420 -55 -346
-5 -787 -12 -980 -15 -640 -10 -2918 -13 -3765 -5 -1224 12 -1912 25 -3195 60
-716 20 -956 28 -1695 55 -739 28 -1659 71 -2560 120 -1035 57 -2464 153
-3347 225 -2920 239 -5163 493 -7713 874 -58 9 -148 23 -200 31 -52 8 -153 24
-225 35 -4234 661 -7931 1564 -10830 2645 -978 365 -1728 688 -2570 1105 -582
289 -983 512 -1555 865 -276 171 -696 463 -1007 702 -550 421 -1074 925 -1443
1388 -584 732 -916 1481 -1016 2290 -25 198 -25 636 -1 835 37 305 93 569 177
835 47 149 59 253 40 336 -39 166 -163 301 -321 350 -65 20 -184 24 -251 8z"/>
</g>
</svg>
